<svg width="368" height="388" viewBox="0 0 368 388" fill="none" xmlns="http://www.w3.org/2000/svg">
<g clip-path="url(#clip0_31_104)">
<path d="M221.876 48.582C194.253 17.6358 154.624 1.57013 114.643 9.80991C53.6616 22.3971 13.8822 88.5031 24.8772 158.99C36.5672 233.955 99.7645 285.75 164.565 274.237C180.509 271.404 195.03 265.011 207.653 255.875C227.761 274.022 254.192 282.651 280.747 276.759C325.546 266.796 354.391 217.633 345.96 165.735C339.03 123.044 309.534 90.6396 274.387 82.1154C254.528 77.2868 236.524 65.0234 221.86 48.5848L221.876 48.582Z" fill="#69BF92" fill-opacity="0.35"/>
<path d="M227.382 52.7988C218.493 23.8136 214.242 19.7997 188.193 4.24569C159.575 -12.8521 105.701 24.4504 121.198 67.4264C121.256 67.6194 121.333 67.7931 121.391 67.9861C126.203 81.6681 122.358 96.9326 111.672 106.736C93.5074 123.409 83.1692 146.586 91.2078 172.001C102.319 207.181 144.058 232.248 179.788 222.889C217.527 213.008 239.73 174.22 229.295 136.821C229.16 136.319 229.005 135.798 228.85 135.297C223.71 118.353 223.884 100.348 228.193 83.1734C230.609 73.5052 230.512 63.0651 227.362 52.7988H227.382Z" fill="#381F13"/>
<path d="M295.556 215.208C293.971 195.061 242.454 121.653 232.116 113.49C232.116 113.49 211.092 163.895 224.947 198.844C238.802 233.792 255.13 245.834 265.488 247.397C288.116 250.832 297.623 241.511 295.556 215.189V215.208Z" fill="#ABB869"/>
<path d="M242.647 302.106C242.647 302.106 234.164 215.691 233.623 181.514C233.411 168.431 232.116 113.49 232.116 113.49C232.116 113.49 198.068 95.794 176 96.4887C149.237 97.3185 106.473 114.86 106.473 114.86C106.473 114.86 125.198 209.612 129.449 225.012C157.43 326.035 214.86 318.335 242.667 302.106H242.647Z" fill="#ABB869"/>
<path d="M124.097 175.667L143.015 249.693" stroke="#9BA55F" stroke-width="0.92" stroke-miterlimit="10"/>
<path d="M145.256 101.815C145.256 101.815 174.918 169.241 187.42 172.734C199.923 176.227 205.179 102.143 205.179 102.143C205.179 102.143 177.16 88.3645 145.237 101.815H145.256Z" fill="#935A40"/>
<path d="M177.198 118.141C177.198 118.141 173.585 111.522 170.744 112.544C167.903 113.586 155.053 115.13 155.053 115.13C155.053 115.13 168.271 115.227 170.589 116.906C172.908 118.585 178.126 119.646 177.198 118.141Z" fill="#72351C"/>
<path d="M184.135 117.581C184.135 117.581 186.667 110.46 189.623 111.039C192.58 111.618 202.995 111.599 202.995 111.599C202.995 111.599 192.502 113.297 190.473 115.323C188.444 117.35 183.459 119.222 184.135 117.581Z" fill="#72351C"/>
<path d="M98.2415 388H177.952L181.7 357.317L183.961 388H254.551C256.27 339.987 254.725 289.311 242.512 270.535L242.86 252.819C222.705 262.796 177.043 260.288 133.333 241.53L132.947 259.439C132.947 259.439 93.6232 285.876 98.0289 382.404C98.1062 384.295 98.2029 386.147 98.2802 387.981L98.2415 388Z" fill="#F1DAB8"/>
<path d="M160.174 64.4543L161.43 110.653L191.749 108.26L188.58 64.1841L160.174 64.4543Z" fill="#935A40"/>
<path d="M188.58 64.1841L162.28 64.435C162.628 70.1278 163.633 74.8171 163.633 74.8171C172.251 93.9219 181.43 97.8393 191.053 98.6305L188.58 64.1841Z" fill="#72351C"/>
<path d="M192.58 91.7222C177.836 92.1661 154.435 75.242 153.99 60.4985C153.99 60.4985 150.222 37.5535 154.164 30.4713C161.005 18.1593 190.493 16.0945 202.3 17.812C220.386 20.4364 218.106 53.8215 218.106 53.8215C220.271 81.2436 199.034 91.5293 192.58 91.7415V91.7222Z" fill="#935A40"/>
<path d="M143.13 54.3617C143.633 60.6721 149.7 65.6509 157.295 65.4579L156.502 42.5322C148.889 42.7445 142.203 43.034 143.111 54.3617H143.13Z" fill="#935A40"/>
<path d="M150.763 50.1545C150.783 49.2862 149.662 48.9581 149.198 49.6914C148.425 50.9072 147.903 52.5861 148.792 54.6123C150.048 57.4684 152.522 60.228 153.585 58.9929C154.647 57.7579 153.488 58.0859 151.633 54.3808C150.899 52.9141 150.725 51.3703 150.763 50.1353V50.1545Z" fill="#72351C"/>
<path d="M155.826 14.126C166.609 9.82258 207.169 7.91211 207.169 7.91211C207.169 7.91211 200.927 22.1538 183.923 32.2272C179.266 34.9868 173.546 37.1482 168.039 38.7885C162.338 40.4867 158.087 45.2146 157.198 51.0811L156.87 49.6531C155.884 45.4269 151.826 42.6673 147.517 43.2076C147.517 43.2076 145.063 18.4294 155.826 14.126Z" fill="#381F13"/>
<path d="M211.44 53.9374C211.594 55.7707 210.628 57.3531 209.275 57.4689C207.942 57.5653 206.744 56.1759 206.589 54.3233C206.435 52.4707 207.401 50.9076 208.754 50.7918C210.087 50.6954 211.285 52.0848 211.44 53.9374Z" fill="#381F13"/>
<path d="M187.633 54.8636C187.787 56.6969 186.821 58.2793 185.469 58.3951C184.135 58.4916 182.937 57.1022 182.783 55.2496C182.628 53.4163 183.594 51.8339 184.947 51.7181C186.28 51.6216 187.478 53.0111 187.633 54.8636Z" fill="#381F13"/>
<path d="M176.039 48.1477L175.208 46.9126C175.556 46.681 183.787 41.3356 192.309 45.5811L191.652 46.9126C183.884 43.0531 176.116 48.1091 176.039 48.1477Z" fill="#72351C"/>
<path d="M216.464 44.3076C213.758 42.9568 211.072 42.648 208.676 42.8024C201.623 43.3041 196.367 49.9039 198.261 56.716C198.415 57.2371 198.589 57.7581 198.821 58.2792C201.642 64.5702 204 66.3842 199.324 67.3298" stroke="#72351C" stroke-width="0.77" stroke-miterlimit="10"/>
<path d="M196.986 79.9697C194.338 79.9697 192.367 78.8312 192.329 78.7926L193.102 77.5189C193.314 77.6347 198.203 80.4522 202.493 75.9751L203.575 77.0172C201.372 79.3136 198.995 79.9697 196.986 79.9697Z" fill="#72351C"/>
<path d="M132.927 259.438C132.927 259.438 191.981 293.538 242.512 270.515" stroke="#D28D66" stroke-width="0.69" stroke-miterlimit="10" stroke-linecap="round"/>
<path d="M144.502 272.349C144.502 272.349 126.396 318.142 103.71 311.735" stroke="#D28D66" stroke-width="0.69" stroke-miterlimit="10" stroke-linecap="round"/>
<path d="M106.3 312.372C102.899 337.98 102.899 361.041 103.304 386.514" stroke="#D28D66" stroke-width="0.69" stroke-miterlimit="10" stroke-linecap="round"/>
<path d="M184.966 347.533C186.029 360.462 187.092 373.372 188.155 386.302" stroke="#D28D66" stroke-width="0.69" stroke-miterlimit="10" stroke-linecap="round"/>
<path d="M71.0339 223.352C82.2417 198.361 67.7296 131.475 106.454 114.841C106.454 114.841 140.773 176.825 127.304 211.928C113.836 247.03 130.454 278.987 103.672 285.452C96.6378 287.15 81.6813 290.006 71.3431 276.594C57.7972 259.033 61.3141 245.023 71.0533 223.352H71.0339Z" fill="#ABB869"/>
<path d="M214.029 199.943C214.029 199.943 187.053 190.024 160.174 220.167" stroke="#9BA55F" stroke-width="0.92" stroke-miterlimit="10"/>
<path d="M138.802 192.379C138.802 192.379 144.502 222.001 174.86 207.103" stroke="#9BA55F" stroke-width="0.92" stroke-miterlimit="10"/>
<path d="M231.807 144.656C235.304 155.057 250.744 170.939 250.744 181.785C250.744 192.63 241.932 201.43 231.073 201.43" stroke="#9BA55F" stroke-width="0.92" stroke-miterlimit="10"/>
<path d="M188.676 157.334C187.71 161.695 187.671 166.925 190.319 172.136C190.319 172.136 188.386 163.027 179.652 154.729" stroke="#6B3E2D" stroke-width="0.77" stroke-linejoin="bevel"/>
<path d="M214.241 194.752C214.241 194.752 225.043 205.868 239.072 199.712" stroke="#9BA55F" stroke-width="0.92" stroke-miterlimit="10"/>
<path d="M106.454 114.86C106.454 114.86 132.734 125.937 133.565 177.983" stroke="#9BA55F" stroke-width="0.92" stroke-miterlimit="10"/>
<path d="M152.251 274.935C134.821 265.633 122.164 254.074 115.845 247.628C110.473 242.148 103.285 238.674 95.6328 238.327C76.4637 237.439 67.2849 255.54 80.8501 271.557C80.9661 271.693 81.082 271.828 81.198 271.963C89.2946 281.361 101.082 286.764 113.507 287.054L153.642 288.347C155.285 283.715 151.053 284.68 152.27 274.935H152.251Z" fill="#935A40"/>
<path d="M189.7 285.664L181.7 357.317" stroke="#D28D66" stroke-width="0.69" stroke-miterlimit="10" stroke-linecap="round"/>
<path d="M184.792 9.4751C184.792 9.4751 193.469 39.3287 228.135 47.5109C228.135 47.5109 234.222 19.6836 216.464 9.4751C198.705 -0.733398 184.792 9.4751 184.792 9.4751Z" fill="#381F13"/>
<path d="M205.372 279.373L201.159 314.032C200.56 318.953 196.792 322.889 191.903 323.738L185.314 324.858" stroke="#D28D66" stroke-width="0.69" stroke-miterlimit="10" stroke-linecap="round"/>
<path d="M177.797 144.926C177.797 144.926 178.589 127.963 182.454 128.33C186.319 128.696 191.381 132.826 191.362 137.67C191.362 142.533 179.439 146.257 179.439 146.257L177.797 144.906V144.926Z" fill="#E6C79F"/>
<path d="M170.473 143.189C170.473 143.189 163.13 131.186 158.164 133.019C153.198 134.852 150.57 141.086 153.565 143.421C156.56 145.756 169.758 148.419 169.758 148.419L170.473 143.17V143.189Z" fill="#E6C79F"/>
<path d="M176.522 141.587C176.522 141.587 181.662 124.47 176.734 124.084C171.807 123.698 162.338 126.651 161.971 130.047C161.507 134.331 171.15 142.996 171.15 142.996L176.541 141.587H176.522Z" fill="#E6C79F"/>
<path d="M174.415 145.08C174.415 145.08 174.164 129.333 163.729 132.267C153.295 135.219 170.222 147.512 170.222 147.512L174.396 145.08H174.415Z" fill="#F1DAB8"/>
<path d="M174.299 146.18C174.299 146.18 168.908 129.314 175.807 128.388C182.705 127.461 185.449 132.98 183.826 136.184C182.184 139.387 178.319 146.547 178.319 146.547L174.299 146.161V146.18Z" fill="#F1DAB8"/>
<path d="M168.522 150.522C169.778 154.961 173.932 157.682 177.836 156.601C181.72 155.501 183.865 151.024 182.628 146.586C181.372 142.147 178.299 143.961 174.415 145.061C170.531 146.161 167.285 146.103 168.541 150.542L168.522 150.522Z" fill="#D2953D"/>
<path d="M145.159 192.553C166.01 205.656 165.314 218.141 167.787 231.611L159.981 240.855C153.507 229.006 153.778 214.591 139.42 204.787C139.246 204.652 136.483 202.626 136.367 202.53C122.879 192.456 120.309 174.413 124.618 158.164C130.261 174.432 131.671 183.869 145.179 192.572L145.159 192.553Z" fill="#435751"/>
<path d="M176.715 152.49C180.502 152.162 180.734 153.031 181.101 154.497C182.357 158.627 180.174 166.655 179.227 170.901C176.831 182.711 172.676 189.426 175.594 200.831C180.464 220.206 183.981 233.888 176.077 249.539L174.57 249.249C180.947 216.829 178.473 219.569 174.222 201.159C171.111 188.095 177.14 179.469 177.662 170.708C177.971 163.818 174.454 160.75 173.333 156.659C172.985 155.482 172.483 154.941 175.903 152.78L176.696 152.51L176.715 152.49Z" fill="#6C9070"/>
<path d="M156.792 184.39C149.391 207.856 158.01 216.926 164.85 228.794L176.792 230.781C174.048 217.562 164.502 206.736 169.101 190.005C169.159 189.793 169.932 186.454 169.971 186.3C173.72 169.897 164 154.478 150.184 144.887C156.425 160.943 161.469 169.048 156.812 184.409L156.792 184.39Z" fill="#6C9070"/>
<path d="M187.169 154.826C172.386 174.509 177.507 185.914 180 199.365L190.609 205.212C192.406 191.819 187.014 178.465 196.908 164.185C197.024 163.992 198.879 161.117 198.956 160.982C207.942 146.759 203.903 128.986 194.068 115.362C194.609 132.575 196.676 141.896 187.169 154.826Z" fill="#435751"/>
<path d="M231.285 245.737C260.947 248.207 277.836 239.214 277.836 239.214C293.758 232.383 287.768 213.047 281.411 208.3C270.783 200.368 259.478 200.465 252.135 207.566L218.512 232.827C214.976 233.116 227.072 238.307 231.285 245.737Z" fill="#935A40"/>
<path d="M151.15 224.857H221.256V259.863C221.256 267.486 215.072 273.661 207.44 273.661H164.985C157.353 273.661 151.169 267.486 151.169 259.863V224.857H151.15Z" fill="#D28D66"/>
<path d="M214.377 269.763L206.184 270.323L192.715 274.896L175.633 272.445C175.633 272.445 172.444 271.037 169.024 269.975C169.971 272.484 170.184 275.282 169.662 277.907C170.918 277.559 172.232 277.308 173.623 277.251C180.754 276.961 189.275 280.107 196.232 278.293C203.053 276.498 208.29 271.288 215.324 269.802C215.42 269.782 215.517 269.782 215.594 269.763C215.188 269.724 214.802 269.705 214.396 269.744L214.377 269.763Z" fill="#6B3E2D"/>
<path d="M153.623 288.347L162.396 288.173L195.672 283.792L209.469 276.343L221.275 273.68C219.981 271.114 217.275 269.551 214.396 269.763L206.203 270.322L192.734 274.896L175.652 272.445C175.652 272.445 173.816 267.466 170.164 268.354C168 268.875 157.894 273.314 154.203 274.664C150.473 276.015 141.797 271.963 141.797 271.963L153.662 288.347H153.623Z" fill="#935A40"/>
<path d="M173.816 280.203C177.585 280.647 188.734 277.501 188.734 277.501L200.135 276.71L199.729 275.533C198.435 271.886 194.879 269.531 191.015 269.801L186.415 270.11C186.415 270.11 174.068 267.158 170.145 268.316C167.633 269.049 161.662 272.349 162.01 274.935C162.435 278.138 170.609 279.798 173.816 280.164V280.203Z" fill="#935A40"/>
<path d="M159.401 183.29C159.401 183.29 156.096 153.011 131.111 154.536C106.125 156.041 92.0965 140.121 92.0965 140.121C92.0965 140.121 91.9033 173.004 112.889 183.772C139.053 197.203 159.401 183.29 159.401 183.29Z" fill="#6C9070"/>
<path d="M98.2415 151.313C101.101 155.057 104.56 158.28 108.406 160.924C112.232 163.587 116.425 165.71 120.85 167.06C125.237 168.45 129.952 168.932 134.57 169.994C139.188 170.997 143.807 172.136 148.309 173.757C150.551 174.587 152.792 175.513 154.918 176.806C157.005 178.079 159.111 179.72 160.367 182.228C160.966 183.521 161.179 184.776 161.391 185.972C161.604 187.169 161.72 188.365 161.855 189.542C162.087 191.916 162.261 194.27 162.377 196.644C162.841 206.08 162.802 215.498 162.415 224.915H160.348C160.135 215.517 160 206.119 159.594 196.779C159.498 194.444 159.362 192.109 159.15 189.812C158.918 187.574 158.705 185.084 157.971 183.348C157.159 181.572 155.478 180.086 153.604 178.909C151.729 177.713 149.623 176.767 147.478 175.918C143.169 174.258 138.647 173.043 134.106 171.943C129.584 170.785 124.908 170.09 120.367 168.469C115.865 166.867 111.613 164.571 107.884 161.638C104.155 158.724 100.792 155.308 98.2222 151.352L98.2415 151.313Z" fill="#435751"/>
<path d="M150.3 212.95C150.3 212.95 127.787 207.2 122.164 225.397C116.541 243.595 101.411 249.327 101.411 249.327C101.411 249.327 124.85 258.281 138.164 246.22C154.783 231.187 150.3 212.95 150.3 212.95Z" fill="#6C9070"/>
<path d="M111.053 247.957C116.56 246.336 121.507 243.19 125.546 239.253C127.556 237.266 129.314 235.046 130.763 232.634C132.232 230.183 133.72 227.713 135.324 225.32C136.928 222.927 138.609 220.573 140.502 218.334C142.416 216.154 144.483 213.954 147.382 212.622C148.116 212.314 148.908 212.082 149.739 211.986C150.531 211.889 151.594 212.024 152.387 212.468C154.01 213.356 154.879 214.803 155.575 216.154C156.85 218.952 157.43 221.847 157.604 224.799L156.039 224.973C155.478 222.271 154.802 219.473 153.643 217.099C153.082 215.922 152.348 214.803 151.42 214.301C150.589 213.78 149.295 213.973 148.116 214.436C145.739 215.44 143.672 217.447 141.797 219.512C139.923 221.615 138.222 223.892 136.58 226.208C134.957 228.543 133.391 230.917 131.826 233.329C130.242 235.78 128.329 237.999 126.184 239.967C121.894 243.865 116.638 246.683 111.053 248.014V247.957Z" fill="#6C9070"/>
<path d="M221.72 170.399C221.72 170.399 233.449 152.626 237.391 155.501C241.333 158.377 244.135 166.057 241.005 171.287C237.874 176.516 222.628 172.908 222.628 172.908L221.72 170.399Z" fill="#F1DAB8"/>
<path d="M215.652 170.92C215.652 170.92 198.841 165.459 195.614 171.267C192.367 177.076 194.976 185.142 199.749 184.93C204.502 184.718 219.266 176.497 219.266 176.497L215.652 170.92Z" fill="#D1C3B4"/>
<path d="M223.44 169.588C223.44 169.588 233.797 149.712 227.807 148.071C221.816 146.431 214.995 147.377 213.739 151.487C212.174 156.659 217.643 169.994 217.643 169.994L223.42 169.588H223.44Z" fill="#E6C79F"/>
<path d="M219.884 175.918C219.884 175.918 225.836 195.158 212.251 195.756C198.667 196.354 213.952 174.645 213.952 174.645L219.884 175.918Z" fill="#EADFD1"/>
<path d="M212.58 172.56C212.58 172.56 193.836 165.15 201.874 154.189C209.913 143.228 217.295 168.739 217.295 168.739L212.58 172.56Z" fill="#F1DAB8"/>
<path d="M219.382 175.223C219.382 175.223 225.758 196.953 233.565 193.074C241.391 189.176 240.309 181.379 236.348 179.122C232.367 176.864 223.285 171.981 223.285 171.981L219.382 175.223Z" fill="#D1C3B4"/>
<path d="M226.338 174.625C225.372 177.944 221.198 179.642 216.986 178.446C212.773 177.23 210.145 173.564 211.092 170.244C212.058 166.925 216.232 165.227 220.445 166.424C224.657 167.639 227.285 171.306 226.338 174.625Z" fill="#D2953D"/>
<path d="M210.667 176.69C210.667 176.69 203.498 194.753 207.246 226.768" stroke="#435751" stroke-width="1.36" stroke-miterlimit="10"/>
<path d="M220.522 164.764C220.522 164.764 202.841 156.601 193.275 167.157C183.729 177.713 199.749 193.73 210.338 201.565C220.908 209.399 229.778 233.251 246.841 238.713C246.841 238.713 256.734 219.627 249.565 200.58C246.609 192.707 249.952 170.051 235.845 161.367C229.778 157.624 220.502 164.764 220.502 164.764H220.522Z" fill="#6C9070"/>
<path d="M222.802 163.239C221.701 163.895 220.928 164.455 220.638 164.667C232.85 177.79 240.309 215.575 241.604 220.631C241.237 218.855 235.594 178.793 222.802 163.239Z" fill="#435751"/>
<path d="M151.15 242.649H221.256" stroke="#F1DAB8" stroke-width="2.76" stroke-miterlimit="10"/>
<path d="M151.15 249.732H221.256" stroke="#F1DAB8" stroke-width="0.92" stroke-miterlimit="10"/>
<path d="M185.159 193.614C185.159 193.614 196.889 175.841 200.831 178.716C204.773 181.591 207.575 189.272 204.444 194.502C201.314 199.731 186.067 196.123 186.067 196.123L185.159 193.614Z" fill="#F1DAB8"/>
<path d="M179.092 194.135C179.092 194.135 162.28 188.674 159.053 194.482C155.807 200.291 158.415 208.358 163.188 208.145C167.942 207.933 182.705 199.712 182.705 199.712L179.092 194.135Z" fill="#E6C79F"/>
<path d="M186.898 192.784C186.898 192.784 197.256 172.908 191.266 171.267C185.275 169.627 178.454 170.572 177.198 174.683C175.633 179.855 181.101 193.189 181.101 193.189L186.879 192.784H186.898Z" fill="#E6C79F"/>
<path d="M183.323 199.133C183.323 199.133 189.275 218.373 175.691 218.971C162.106 219.569 177.391 197.859 177.391 197.859L183.323 199.133Z" fill="#F1DAB8"/>
<path d="M176.038 195.776C176.038 195.776 157.294 188.365 165.333 177.404C173.372 166.443 180.753 191.955 180.753 191.955L176.038 195.776Z" fill="#F1DAB8"/>
<path d="M182.821 198.438C182.821 198.438 189.198 220.168 197.005 216.289C204.831 212.391 203.749 204.594 199.787 202.336C195.807 200.079 186.724 195.196 186.724 195.196L182.821 198.438Z" fill="#E6C79F"/>
<path d="M189.778 197.84C188.812 201.16 184.638 202.858 180.425 201.661C176.213 200.465 173.585 196.779 174.531 193.46C175.498 190.141 179.671 188.442 183.884 189.639C188.097 190.855 190.725 194.521 189.778 197.84Z" fill="#D2953D"/>
<path d="M191.729 241.743L196.715 242.129L231.285 245.737L232.328 240.141C233.874 231.824 229.855 223.448 222.377 219.434C222.377 219.434 200.947 203.031 199.652 203.224L188.328 202.723C186.686 202.974 186.087 205.019 187.343 206.119C189.391 207.914 189.952 208.608 192.696 208.763L195.13 208.898L200.348 213.086L184.754 208.801L177.488 207.894C175.633 207.721 173.797 208.165 172.212 209.149C172.212 209.149 171.44 209.901 171.401 210.365C171.362 210.828 171.536 211.31 171.884 211.638C171.884 211.638 173.159 213.201 176.908 213.915L183.401 214.707L193.894 217.485C196.483 218.605 194.415 218.72 193.758 218.566L181.372 215.749L171.536 214.803C169.681 214.629 167.845 215.073 166.261 216.057L166.145 216.115C165.739 216.366 165.488 216.791 165.43 217.273C165.391 217.756 165.565 218.219 165.913 218.547L166.01 218.624C167.362 219.878 169.101 220.631 170.937 220.805L179.981 221.634L194.357 226.111C196.773 227.25 195.15 227.752 193.99 227.424L184.618 224.741L174.86 223.255C173.024 222.985 171.15 223.313 169.526 224.201L169.411 224.259C168.985 224.49 168.715 224.896 168.638 225.378C168.56 225.841 168.715 226.324 169.063 226.671L169.159 226.768C170.454 228.08 172.135 228.948 173.952 229.218L182.937 230.55L194.415 234.41C194.821 234.545 194.763 235.124 194.338 235.181L192.985 235.374L183.266 233.946L176.792 231.071C174.705 230.415 173.101 230.878 171.729 232.576C171.169 233.271 171.459 234.313 172.309 234.602L180.85 239.002L191.71 241.723L191.729 241.743Z" fill="#935A40"/>
</g>
<defs>
<clipPath id="clip0_31_104">
<rect width="368" height="388" fill="white"/>
</clipPath>
</defs>
</svg>
